G75*
%MOIN*%
%OFA0B0*%
%FSLAX25Y25*%
%IPPOS*%
%LPD*%
%AMOC8*
5,1,8,0,0,1.08239X$1,22.5*
%
%ADD10C,0.06400*%
%ADD11R,0.07887X0.07099*%
%ADD12R,0.06706X0.09068*%
%ADD13R,0.05599X0.09599*%
%ADD14R,0.14973X0.09461*%
%ADD15R,0.22060X0.25209*%
%ADD16R,0.04737X0.07099*%
%ADD17R,0.16548X0.03950*%
%ADD18R,0.03950X0.10249*%
%ADD19OC8,0.06800*%
D10*
X0030528Y0027654D03*
X0038402Y0027654D03*
X0016984Y0101906D03*
X0016984Y0109780D03*
X0016984Y0117654D03*
X0016984Y0125528D03*
X0036197Y0126315D03*
X0036197Y0118441D03*
X0036197Y0110567D03*
X0036197Y0102693D03*
X0128520Y0015528D03*
X0136394Y0015528D03*
X0147575Y0089661D03*
X0147575Y0097535D03*
X0147575Y0105409D03*
X0147575Y0113283D03*
X0147575Y0121157D03*
X0147575Y0129031D03*
D11*
X0126276Y0041276D03*
X0126276Y0030252D03*
X0039150Y0054701D03*
X0039150Y0065724D03*
D12*
X0043795Y0078520D03*
X0029622Y0078520D03*
X0034386Y0043087D03*
X0048559Y0043087D03*
X0125291Y0050961D03*
X0139465Y0050961D03*
D13*
X0077618Y0027067D03*
X0068520Y0027067D03*
X0059421Y0027067D03*
D14*
X0068520Y0051469D03*
D15*
X0106197Y0042299D03*
D16*
X0115173Y0013559D03*
X0097220Y0013559D03*
D17*
X0123756Y0077772D03*
X0123756Y0082102D03*
X0123756Y0086433D03*
X0123756Y0090764D03*
X0123756Y0095094D03*
X0123756Y0099425D03*
X0123756Y0103756D03*
X0123756Y0108087D03*
X0123756Y0112417D03*
X0123756Y0116748D03*
X0123756Y0121079D03*
X0123756Y0125409D03*
X0056827Y0125409D03*
X0056827Y0121079D03*
X0056827Y0116748D03*
X0056827Y0112417D03*
X0056827Y0108087D03*
X0056827Y0103756D03*
X0056827Y0099425D03*
X0056827Y0095094D03*
X0056827Y0090764D03*
X0056827Y0086433D03*
X0056827Y0082102D03*
X0056827Y0077772D03*
D18*
X0066472Y0065567D03*
X0070803Y0065567D03*
X0075134Y0065567D03*
X0079465Y0065567D03*
X0083795Y0065567D03*
X0088126Y0065567D03*
X0092457Y0065567D03*
X0096787Y0065567D03*
X0101118Y0065567D03*
X0105449Y0065567D03*
X0109780Y0065567D03*
X0114110Y0065567D03*
D19*
X0052181Y0060055D03*
X0016748Y0060055D03*
X0134858Y0158480D03*
X0146669Y0158480D03*
M02*
