%
M48
M72
T01C0.03150
T02C0.04000
%
T01
X30528Y27654
X38402Y27654
X16984Y101906
X16984Y109780
X16984Y117654
X16984Y125528
X36197Y126315
X36197Y118441
X36197Y110567
X36197Y102693
X128520Y15528
X136394Y15528
X147575Y89661
X147575Y97535
X147575Y105409
X147575Y113283
X147575Y121157
X147575Y129031
T02
X146669Y158480
X134858Y158480
X52181Y60055
X16748Y60055
M30
