G75*
%MOIN*%
%OFA0B0*%
%FSLAX25Y25*%
%IPPOS*%
%LPD*%
%AMOC8*
5,1,8,0,0,1.08239X$1,22.5*
%
%ADD10C,0.00000*%
%ADD11R,0.02000X0.02000*%
%ADD12C,0.00600*%
%ADD13C,0.00500*%
%ADD14C,0.02000*%
%ADD15R,0.03000X0.42000*%
%ADD16R,0.02000X0.07500*%
%ADD17R,0.02000X0.03000*%
D10*
X0001000Y0001000D02*
X0001000Y0134858D01*
X0361236Y0134858D01*
X0361236Y0001000D01*
X0001000Y0001000D01*
D11*
X0070882Y0111827D03*
X0078756Y0111827D03*
X0145882Y0111827D03*
X0153756Y0111827D03*
X0220882Y0111827D03*
X0228756Y0111827D03*
X0305882Y0111827D03*
X0313756Y0111827D03*
X0332693Y0086512D03*
X0332693Y0078638D03*
X0332693Y0070764D03*
X0332693Y0062890D03*
X0332693Y0055016D03*
X0332693Y0047142D03*
D12*
X0314819Y0048327D02*
X0314819Y0049327D01*
X0274819Y0049327D01*
X0274819Y0048327D01*
X0274819Y0022327D01*
X0274819Y0012827D01*
X0314819Y0012827D01*
X0314819Y0022327D01*
X0314819Y0048327D01*
X0274819Y0048327D01*
X0282819Y0043027D02*
X0282821Y0043116D01*
X0282827Y0043205D01*
X0282837Y0043294D01*
X0282851Y0043382D01*
X0282868Y0043469D01*
X0282890Y0043555D01*
X0282916Y0043641D01*
X0282945Y0043725D01*
X0282978Y0043808D01*
X0283014Y0043889D01*
X0283055Y0043969D01*
X0283098Y0044046D01*
X0283145Y0044122D01*
X0283196Y0044195D01*
X0283249Y0044266D01*
X0283306Y0044335D01*
X0283366Y0044401D01*
X0283429Y0044465D01*
X0283494Y0044525D01*
X0283562Y0044583D01*
X0283633Y0044637D01*
X0283706Y0044688D01*
X0283781Y0044736D01*
X0283858Y0044781D01*
X0283937Y0044822D01*
X0284018Y0044859D01*
X0284100Y0044893D01*
X0284184Y0044924D01*
X0284269Y0044950D01*
X0284355Y0044973D01*
X0284442Y0044991D01*
X0284530Y0045006D01*
X0284619Y0045017D01*
X0284708Y0045024D01*
X0284797Y0045027D01*
X0284886Y0045026D01*
X0284975Y0045021D01*
X0285063Y0045012D01*
X0285152Y0044999D01*
X0285239Y0044982D01*
X0285326Y0044962D01*
X0285412Y0044937D01*
X0285496Y0044909D01*
X0285579Y0044877D01*
X0285661Y0044841D01*
X0285741Y0044802D01*
X0285819Y0044759D01*
X0285895Y0044713D01*
X0285969Y0044663D01*
X0286041Y0044610D01*
X0286110Y0044554D01*
X0286177Y0044495D01*
X0286241Y0044433D01*
X0286302Y0044369D01*
X0286361Y0044301D01*
X0286416Y0044231D01*
X0286468Y0044159D01*
X0286517Y0044084D01*
X0286562Y0044008D01*
X0286604Y0043929D01*
X0286642Y0043849D01*
X0286677Y0043767D01*
X0286708Y0043683D01*
X0286736Y0043598D01*
X0286759Y0043512D01*
X0286779Y0043425D01*
X0286795Y0043338D01*
X0286807Y0043249D01*
X0286815Y0043161D01*
X0286819Y0043072D01*
X0286819Y0042982D01*
X0286815Y0042893D01*
X0286807Y0042805D01*
X0286795Y0042716D01*
X0286779Y0042629D01*
X0286759Y0042542D01*
X0286736Y0042456D01*
X0286708Y0042371D01*
X0286677Y0042287D01*
X0286642Y0042205D01*
X0286604Y0042125D01*
X0286562Y0042046D01*
X0286517Y0041970D01*
X0286468Y0041895D01*
X0286416Y0041823D01*
X0286361Y0041753D01*
X0286302Y0041685D01*
X0286241Y0041621D01*
X0286177Y0041559D01*
X0286110Y0041500D01*
X0286041Y0041444D01*
X0285969Y0041391D01*
X0285895Y0041341D01*
X0285819Y0041295D01*
X0285741Y0041252D01*
X0285661Y0041213D01*
X0285579Y0041177D01*
X0285496Y0041145D01*
X0285412Y0041117D01*
X0285326Y0041092D01*
X0285239Y0041072D01*
X0285152Y0041055D01*
X0285063Y0041042D01*
X0284975Y0041033D01*
X0284886Y0041028D01*
X0284797Y0041027D01*
X0284708Y0041030D01*
X0284619Y0041037D01*
X0284530Y0041048D01*
X0284442Y0041063D01*
X0284355Y0041081D01*
X0284269Y0041104D01*
X0284184Y0041130D01*
X0284100Y0041161D01*
X0284018Y0041195D01*
X0283937Y0041232D01*
X0283858Y0041273D01*
X0283781Y0041318D01*
X0283706Y0041366D01*
X0283633Y0041417D01*
X0283562Y0041471D01*
X0283494Y0041529D01*
X0283429Y0041589D01*
X0283366Y0041653D01*
X0283306Y0041719D01*
X0283249Y0041788D01*
X0283196Y0041859D01*
X0283145Y0041932D01*
X0283098Y0042008D01*
X0283055Y0042085D01*
X0283014Y0042165D01*
X0282978Y0042246D01*
X0282945Y0042329D01*
X0282916Y0042413D01*
X0282890Y0042499D01*
X0282868Y0042585D01*
X0282851Y0042672D01*
X0282837Y0042760D01*
X0282827Y0042849D01*
X0282821Y0042938D01*
X0282819Y0043027D01*
X0302819Y0043027D02*
X0302821Y0043116D01*
X0302827Y0043205D01*
X0302837Y0043294D01*
X0302851Y0043382D01*
X0302868Y0043469D01*
X0302890Y0043555D01*
X0302916Y0043641D01*
X0302945Y0043725D01*
X0302978Y0043808D01*
X0303014Y0043889D01*
X0303055Y0043969D01*
X0303098Y0044046D01*
X0303145Y0044122D01*
X0303196Y0044195D01*
X0303249Y0044266D01*
X0303306Y0044335D01*
X0303366Y0044401D01*
X0303429Y0044465D01*
X0303494Y0044525D01*
X0303562Y0044583D01*
X0303633Y0044637D01*
X0303706Y0044688D01*
X0303781Y0044736D01*
X0303858Y0044781D01*
X0303937Y0044822D01*
X0304018Y0044859D01*
X0304100Y0044893D01*
X0304184Y0044924D01*
X0304269Y0044950D01*
X0304355Y0044973D01*
X0304442Y0044991D01*
X0304530Y0045006D01*
X0304619Y0045017D01*
X0304708Y0045024D01*
X0304797Y0045027D01*
X0304886Y0045026D01*
X0304975Y0045021D01*
X0305063Y0045012D01*
X0305152Y0044999D01*
X0305239Y0044982D01*
X0305326Y0044962D01*
X0305412Y0044937D01*
X0305496Y0044909D01*
X0305579Y0044877D01*
X0305661Y0044841D01*
X0305741Y0044802D01*
X0305819Y0044759D01*
X0305895Y0044713D01*
X0305969Y0044663D01*
X0306041Y0044610D01*
X0306110Y0044554D01*
X0306177Y0044495D01*
X0306241Y0044433D01*
X0306302Y0044369D01*
X0306361Y0044301D01*
X0306416Y0044231D01*
X0306468Y0044159D01*
X0306517Y0044084D01*
X0306562Y0044008D01*
X0306604Y0043929D01*
X0306642Y0043849D01*
X0306677Y0043767D01*
X0306708Y0043683D01*
X0306736Y0043598D01*
X0306759Y0043512D01*
X0306779Y0043425D01*
X0306795Y0043338D01*
X0306807Y0043249D01*
X0306815Y0043161D01*
X0306819Y0043072D01*
X0306819Y0042982D01*
X0306815Y0042893D01*
X0306807Y0042805D01*
X0306795Y0042716D01*
X0306779Y0042629D01*
X0306759Y0042542D01*
X0306736Y0042456D01*
X0306708Y0042371D01*
X0306677Y0042287D01*
X0306642Y0042205D01*
X0306604Y0042125D01*
X0306562Y0042046D01*
X0306517Y0041970D01*
X0306468Y0041895D01*
X0306416Y0041823D01*
X0306361Y0041753D01*
X0306302Y0041685D01*
X0306241Y0041621D01*
X0306177Y0041559D01*
X0306110Y0041500D01*
X0306041Y0041444D01*
X0305969Y0041391D01*
X0305895Y0041341D01*
X0305819Y0041295D01*
X0305741Y0041252D01*
X0305661Y0041213D01*
X0305579Y0041177D01*
X0305496Y0041145D01*
X0305412Y0041117D01*
X0305326Y0041092D01*
X0305239Y0041072D01*
X0305152Y0041055D01*
X0305063Y0041042D01*
X0304975Y0041033D01*
X0304886Y0041028D01*
X0304797Y0041027D01*
X0304708Y0041030D01*
X0304619Y0041037D01*
X0304530Y0041048D01*
X0304442Y0041063D01*
X0304355Y0041081D01*
X0304269Y0041104D01*
X0304184Y0041130D01*
X0304100Y0041161D01*
X0304018Y0041195D01*
X0303937Y0041232D01*
X0303858Y0041273D01*
X0303781Y0041318D01*
X0303706Y0041366D01*
X0303633Y0041417D01*
X0303562Y0041471D01*
X0303494Y0041529D01*
X0303429Y0041589D01*
X0303366Y0041653D01*
X0303306Y0041719D01*
X0303249Y0041788D01*
X0303196Y0041859D01*
X0303145Y0041932D01*
X0303098Y0042008D01*
X0303055Y0042085D01*
X0303014Y0042165D01*
X0302978Y0042246D01*
X0302945Y0042329D01*
X0302916Y0042413D01*
X0302890Y0042499D01*
X0302868Y0042585D01*
X0302851Y0042672D01*
X0302837Y0042760D01*
X0302827Y0042849D01*
X0302821Y0042938D01*
X0302819Y0043027D01*
X0302350Y0051827D02*
X0313850Y0052327D01*
X0314850Y0053327D01*
X0314850Y0090327D01*
X0313850Y0091327D01*
X0302350Y0091827D01*
X0279819Y0088327D02*
X0279819Y0065327D01*
X0249819Y0065327D01*
X0249819Y0072827D01*
X0249945Y0072829D01*
X0250070Y0072835D01*
X0250195Y0072845D01*
X0250320Y0072859D01*
X0250445Y0072876D01*
X0250569Y0072898D01*
X0250692Y0072923D01*
X0250814Y0072953D01*
X0250935Y0072986D01*
X0251055Y0073023D01*
X0251174Y0073063D01*
X0251291Y0073108D01*
X0251408Y0073156D01*
X0251522Y0073208D01*
X0251635Y0073263D01*
X0251746Y0073322D01*
X0251855Y0073384D01*
X0251962Y0073450D01*
X0252067Y0073519D01*
X0252170Y0073591D01*
X0252271Y0073666D01*
X0252369Y0073745D01*
X0252464Y0073827D01*
X0252557Y0073911D01*
X0252647Y0073999D01*
X0252735Y0074089D01*
X0252819Y0074182D01*
X0252901Y0074277D01*
X0252980Y0074375D01*
X0253055Y0074476D01*
X0253127Y0074579D01*
X0253196Y0074684D01*
X0253262Y0074791D01*
X0253324Y0074900D01*
X0253383Y0075011D01*
X0253438Y0075124D01*
X0253490Y0075238D01*
X0253538Y0075355D01*
X0253583Y0075472D01*
X0253623Y0075591D01*
X0253660Y0075711D01*
X0253693Y0075832D01*
X0253723Y0075954D01*
X0253748Y0076077D01*
X0253770Y0076201D01*
X0253787Y0076326D01*
X0253801Y0076451D01*
X0253811Y0076576D01*
X0253817Y0076701D01*
X0253819Y0076827D01*
X0253817Y0076953D01*
X0253811Y0077078D01*
X0253801Y0077203D01*
X0253787Y0077328D01*
X0253770Y0077453D01*
X0253748Y0077577D01*
X0253723Y0077700D01*
X0253693Y0077822D01*
X0253660Y0077943D01*
X0253623Y0078063D01*
X0253583Y0078182D01*
X0253538Y0078299D01*
X0253490Y0078416D01*
X0253438Y0078530D01*
X0253383Y0078643D01*
X0253324Y0078754D01*
X0253262Y0078863D01*
X0253196Y0078970D01*
X0253127Y0079075D01*
X0253055Y0079178D01*
X0252980Y0079279D01*
X0252901Y0079377D01*
X0252819Y0079472D01*
X0252735Y0079565D01*
X0252647Y0079655D01*
X0252557Y0079743D01*
X0252464Y0079827D01*
X0252369Y0079909D01*
X0252271Y0079988D01*
X0252170Y0080063D01*
X0252067Y0080135D01*
X0251962Y0080204D01*
X0251855Y0080270D01*
X0251746Y0080332D01*
X0251635Y0080391D01*
X0251522Y0080446D01*
X0251408Y0080498D01*
X0251291Y0080546D01*
X0251174Y0080591D01*
X0251055Y0080631D01*
X0250935Y0080668D01*
X0250814Y0080701D01*
X0250692Y0080731D01*
X0250569Y0080756D01*
X0250445Y0080778D01*
X0250320Y0080795D01*
X0250195Y0080809D01*
X0250070Y0080819D01*
X0249945Y0080825D01*
X0249819Y0080827D01*
X0249819Y0088327D01*
X0279819Y0088327D01*
X0234850Y0090327D02*
X0234850Y0053327D01*
X0233850Y0052327D01*
X0222350Y0051827D01*
X0239819Y0049327D02*
X0239819Y0048327D01*
X0239819Y0022327D01*
X0233319Y0022327D01*
X0239819Y0022327D02*
X0239819Y0012827D01*
X0199819Y0012827D01*
X0199819Y0022327D01*
X0206319Y0022327D01*
X0199819Y0022327D02*
X0199819Y0048327D01*
X0199819Y0049327D01*
X0239819Y0049327D01*
X0239819Y0048327D02*
X0199819Y0048327D01*
X0207819Y0043027D02*
X0207821Y0043116D01*
X0207827Y0043205D01*
X0207837Y0043294D01*
X0207851Y0043382D01*
X0207868Y0043469D01*
X0207890Y0043555D01*
X0207916Y0043641D01*
X0207945Y0043725D01*
X0207978Y0043808D01*
X0208014Y0043889D01*
X0208055Y0043969D01*
X0208098Y0044046D01*
X0208145Y0044122D01*
X0208196Y0044195D01*
X0208249Y0044266D01*
X0208306Y0044335D01*
X0208366Y0044401D01*
X0208429Y0044465D01*
X0208494Y0044525D01*
X0208562Y0044583D01*
X0208633Y0044637D01*
X0208706Y0044688D01*
X0208781Y0044736D01*
X0208858Y0044781D01*
X0208937Y0044822D01*
X0209018Y0044859D01*
X0209100Y0044893D01*
X0209184Y0044924D01*
X0209269Y0044950D01*
X0209355Y0044973D01*
X0209442Y0044991D01*
X0209530Y0045006D01*
X0209619Y0045017D01*
X0209708Y0045024D01*
X0209797Y0045027D01*
X0209886Y0045026D01*
X0209975Y0045021D01*
X0210063Y0045012D01*
X0210152Y0044999D01*
X0210239Y0044982D01*
X0210326Y0044962D01*
X0210412Y0044937D01*
X0210496Y0044909D01*
X0210579Y0044877D01*
X0210661Y0044841D01*
X0210741Y0044802D01*
X0210819Y0044759D01*
X0210895Y0044713D01*
X0210969Y0044663D01*
X0211041Y0044610D01*
X0211110Y0044554D01*
X0211177Y0044495D01*
X0211241Y0044433D01*
X0211302Y0044369D01*
X0211361Y0044301D01*
X0211416Y0044231D01*
X0211468Y0044159D01*
X0211517Y0044084D01*
X0211562Y0044008D01*
X0211604Y0043929D01*
X0211642Y0043849D01*
X0211677Y0043767D01*
X0211708Y0043683D01*
X0211736Y0043598D01*
X0211759Y0043512D01*
X0211779Y0043425D01*
X0211795Y0043338D01*
X0211807Y0043249D01*
X0211815Y0043161D01*
X0211819Y0043072D01*
X0211819Y0042982D01*
X0211815Y0042893D01*
X0211807Y0042805D01*
X0211795Y0042716D01*
X0211779Y0042629D01*
X0211759Y0042542D01*
X0211736Y0042456D01*
X0211708Y0042371D01*
X0211677Y0042287D01*
X0211642Y0042205D01*
X0211604Y0042125D01*
X0211562Y0042046D01*
X0211517Y0041970D01*
X0211468Y0041895D01*
X0211416Y0041823D01*
X0211361Y0041753D01*
X0211302Y0041685D01*
X0211241Y0041621D01*
X0211177Y0041559D01*
X0211110Y0041500D01*
X0211041Y0041444D01*
X0210969Y0041391D01*
X0210895Y0041341D01*
X0210819Y0041295D01*
X0210741Y0041252D01*
X0210661Y0041213D01*
X0210579Y0041177D01*
X0210496Y0041145D01*
X0210412Y0041117D01*
X0210326Y0041092D01*
X0210239Y0041072D01*
X0210152Y0041055D01*
X0210063Y0041042D01*
X0209975Y0041033D01*
X0209886Y0041028D01*
X0209797Y0041027D01*
X0209708Y0041030D01*
X0209619Y0041037D01*
X0209530Y0041048D01*
X0209442Y0041063D01*
X0209355Y0041081D01*
X0209269Y0041104D01*
X0209184Y0041130D01*
X0209100Y0041161D01*
X0209018Y0041195D01*
X0208937Y0041232D01*
X0208858Y0041273D01*
X0208781Y0041318D01*
X0208706Y0041366D01*
X0208633Y0041417D01*
X0208562Y0041471D01*
X0208494Y0041529D01*
X0208429Y0041589D01*
X0208366Y0041653D01*
X0208306Y0041719D01*
X0208249Y0041788D01*
X0208196Y0041859D01*
X0208145Y0041932D01*
X0208098Y0042008D01*
X0208055Y0042085D01*
X0208014Y0042165D01*
X0207978Y0042246D01*
X0207945Y0042329D01*
X0207916Y0042413D01*
X0207890Y0042499D01*
X0207868Y0042585D01*
X0207851Y0042672D01*
X0207837Y0042760D01*
X0207827Y0042849D01*
X0207821Y0042938D01*
X0207819Y0043027D01*
X0227819Y0043027D02*
X0227821Y0043116D01*
X0227827Y0043205D01*
X0227837Y0043294D01*
X0227851Y0043382D01*
X0227868Y0043469D01*
X0227890Y0043555D01*
X0227916Y0043641D01*
X0227945Y0043725D01*
X0227978Y0043808D01*
X0228014Y0043889D01*
X0228055Y0043969D01*
X0228098Y0044046D01*
X0228145Y0044122D01*
X0228196Y0044195D01*
X0228249Y0044266D01*
X0228306Y0044335D01*
X0228366Y0044401D01*
X0228429Y0044465D01*
X0228494Y0044525D01*
X0228562Y0044583D01*
X0228633Y0044637D01*
X0228706Y0044688D01*
X0228781Y0044736D01*
X0228858Y0044781D01*
X0228937Y0044822D01*
X0229018Y0044859D01*
X0229100Y0044893D01*
X0229184Y0044924D01*
X0229269Y0044950D01*
X0229355Y0044973D01*
X0229442Y0044991D01*
X0229530Y0045006D01*
X0229619Y0045017D01*
X0229708Y0045024D01*
X0229797Y0045027D01*
X0229886Y0045026D01*
X0229975Y0045021D01*
X0230063Y0045012D01*
X0230152Y0044999D01*
X0230239Y0044982D01*
X0230326Y0044962D01*
X0230412Y0044937D01*
X0230496Y0044909D01*
X0230579Y0044877D01*
X0230661Y0044841D01*
X0230741Y0044802D01*
X0230819Y0044759D01*
X0230895Y0044713D01*
X0230969Y0044663D01*
X0231041Y0044610D01*
X0231110Y0044554D01*
X0231177Y0044495D01*
X0231241Y0044433D01*
X0231302Y0044369D01*
X0231361Y0044301D01*
X0231416Y0044231D01*
X0231468Y0044159D01*
X0231517Y0044084D01*
X0231562Y0044008D01*
X0231604Y0043929D01*
X0231642Y0043849D01*
X0231677Y0043767D01*
X0231708Y0043683D01*
X0231736Y0043598D01*
X0231759Y0043512D01*
X0231779Y0043425D01*
X0231795Y0043338D01*
X0231807Y0043249D01*
X0231815Y0043161D01*
X0231819Y0043072D01*
X0231819Y0042982D01*
X0231815Y0042893D01*
X0231807Y0042805D01*
X0231795Y0042716D01*
X0231779Y0042629D01*
X0231759Y0042542D01*
X0231736Y0042456D01*
X0231708Y0042371D01*
X0231677Y0042287D01*
X0231642Y0042205D01*
X0231604Y0042125D01*
X0231562Y0042046D01*
X0231517Y0041970D01*
X0231468Y0041895D01*
X0231416Y0041823D01*
X0231361Y0041753D01*
X0231302Y0041685D01*
X0231241Y0041621D01*
X0231177Y0041559D01*
X0231110Y0041500D01*
X0231041Y0041444D01*
X0230969Y0041391D01*
X0230895Y0041341D01*
X0230819Y0041295D01*
X0230741Y0041252D01*
X0230661Y0041213D01*
X0230579Y0041177D01*
X0230496Y0041145D01*
X0230412Y0041117D01*
X0230326Y0041092D01*
X0230239Y0041072D01*
X0230152Y0041055D01*
X0230063Y0041042D01*
X0229975Y0041033D01*
X0229886Y0041028D01*
X0229797Y0041027D01*
X0229708Y0041030D01*
X0229619Y0041037D01*
X0229530Y0041048D01*
X0229442Y0041063D01*
X0229355Y0041081D01*
X0229269Y0041104D01*
X0229184Y0041130D01*
X0229100Y0041161D01*
X0229018Y0041195D01*
X0228937Y0041232D01*
X0228858Y0041273D01*
X0228781Y0041318D01*
X0228706Y0041366D01*
X0228633Y0041417D01*
X0228562Y0041471D01*
X0228494Y0041529D01*
X0228429Y0041589D01*
X0228366Y0041653D01*
X0228306Y0041719D01*
X0228249Y0041788D01*
X0228196Y0041859D01*
X0228145Y0041932D01*
X0228098Y0042008D01*
X0228055Y0042085D01*
X0228014Y0042165D01*
X0227978Y0042246D01*
X0227945Y0042329D01*
X0227916Y0042413D01*
X0227890Y0042499D01*
X0227868Y0042585D01*
X0227851Y0042672D01*
X0227837Y0042760D01*
X0227827Y0042849D01*
X0227821Y0042938D01*
X0227819Y0043027D01*
X0226319Y0022327D02*
X0213319Y0022327D01*
X0164819Y0022327D02*
X0164819Y0012827D01*
X0124819Y0012827D01*
X0124819Y0022327D01*
X0131319Y0022327D01*
X0124819Y0022327D02*
X0124819Y0048327D01*
X0124819Y0049327D01*
X0164819Y0049327D01*
X0164819Y0048327D01*
X0164819Y0022327D01*
X0158319Y0022327D01*
X0151319Y0022327D02*
X0138319Y0022327D01*
X0089819Y0022327D02*
X0089819Y0012827D01*
X0049819Y0012827D01*
X0049819Y0022327D01*
X0056319Y0022327D01*
X0049819Y0022327D02*
X0049819Y0048327D01*
X0049819Y0049327D01*
X0089819Y0049327D01*
X0089819Y0048327D01*
X0089819Y0022327D01*
X0083319Y0022327D01*
X0076319Y0022327D02*
X0063319Y0022327D01*
X0057819Y0043027D02*
X0057821Y0043116D01*
X0057827Y0043205D01*
X0057837Y0043294D01*
X0057851Y0043382D01*
X0057868Y0043469D01*
X0057890Y0043555D01*
X0057916Y0043641D01*
X0057945Y0043725D01*
X0057978Y0043808D01*
X0058014Y0043889D01*
X0058055Y0043969D01*
X0058098Y0044046D01*
X0058145Y0044122D01*
X0058196Y0044195D01*
X0058249Y0044266D01*
X0058306Y0044335D01*
X0058366Y0044401D01*
X0058429Y0044465D01*
X0058494Y0044525D01*
X0058562Y0044583D01*
X0058633Y0044637D01*
X0058706Y0044688D01*
X0058781Y0044736D01*
X0058858Y0044781D01*
X0058937Y0044822D01*
X0059018Y0044859D01*
X0059100Y0044893D01*
X0059184Y0044924D01*
X0059269Y0044950D01*
X0059355Y0044973D01*
X0059442Y0044991D01*
X0059530Y0045006D01*
X0059619Y0045017D01*
X0059708Y0045024D01*
X0059797Y0045027D01*
X0059886Y0045026D01*
X0059975Y0045021D01*
X0060063Y0045012D01*
X0060152Y0044999D01*
X0060239Y0044982D01*
X0060326Y0044962D01*
X0060412Y0044937D01*
X0060496Y0044909D01*
X0060579Y0044877D01*
X0060661Y0044841D01*
X0060741Y0044802D01*
X0060819Y0044759D01*
X0060895Y0044713D01*
X0060969Y0044663D01*
X0061041Y0044610D01*
X0061110Y0044554D01*
X0061177Y0044495D01*
X0061241Y0044433D01*
X0061302Y0044369D01*
X0061361Y0044301D01*
X0061416Y0044231D01*
X0061468Y0044159D01*
X0061517Y0044084D01*
X0061562Y0044008D01*
X0061604Y0043929D01*
X0061642Y0043849D01*
X0061677Y0043767D01*
X0061708Y0043683D01*
X0061736Y0043598D01*
X0061759Y0043512D01*
X0061779Y0043425D01*
X0061795Y0043338D01*
X0061807Y0043249D01*
X0061815Y0043161D01*
X0061819Y0043072D01*
X0061819Y0042982D01*
X0061815Y0042893D01*
X0061807Y0042805D01*
X0061795Y0042716D01*
X0061779Y0042629D01*
X0061759Y0042542D01*
X0061736Y0042456D01*
X0061708Y0042371D01*
X0061677Y0042287D01*
X0061642Y0042205D01*
X0061604Y0042125D01*
X0061562Y0042046D01*
X0061517Y0041970D01*
X0061468Y0041895D01*
X0061416Y0041823D01*
X0061361Y0041753D01*
X0061302Y0041685D01*
X0061241Y0041621D01*
X0061177Y0041559D01*
X0061110Y0041500D01*
X0061041Y0041444D01*
X0060969Y0041391D01*
X0060895Y0041341D01*
X0060819Y0041295D01*
X0060741Y0041252D01*
X0060661Y0041213D01*
X0060579Y0041177D01*
X0060496Y0041145D01*
X0060412Y0041117D01*
X0060326Y0041092D01*
X0060239Y0041072D01*
X0060152Y0041055D01*
X0060063Y0041042D01*
X0059975Y0041033D01*
X0059886Y0041028D01*
X0059797Y0041027D01*
X0059708Y0041030D01*
X0059619Y0041037D01*
X0059530Y0041048D01*
X0059442Y0041063D01*
X0059355Y0041081D01*
X0059269Y0041104D01*
X0059184Y0041130D01*
X0059100Y0041161D01*
X0059018Y0041195D01*
X0058937Y0041232D01*
X0058858Y0041273D01*
X0058781Y0041318D01*
X0058706Y0041366D01*
X0058633Y0041417D01*
X0058562Y0041471D01*
X0058494Y0041529D01*
X0058429Y0041589D01*
X0058366Y0041653D01*
X0058306Y0041719D01*
X0058249Y0041788D01*
X0058196Y0041859D01*
X0058145Y0041932D01*
X0058098Y0042008D01*
X0058055Y0042085D01*
X0058014Y0042165D01*
X0057978Y0042246D01*
X0057945Y0042329D01*
X0057916Y0042413D01*
X0057890Y0042499D01*
X0057868Y0042585D01*
X0057851Y0042672D01*
X0057837Y0042760D01*
X0057827Y0042849D01*
X0057821Y0042938D01*
X0057819Y0043027D01*
X0049819Y0048327D02*
X0089819Y0048327D01*
X0085819Y0052327D02*
X0074319Y0051827D01*
X0085819Y0052327D02*
X0086819Y0053327D01*
X0086819Y0090327D01*
X0085819Y0091327D01*
X0074319Y0091827D01*
X0094819Y0088327D02*
X0094819Y0080827D01*
X0094945Y0080825D01*
X0095070Y0080819D01*
X0095195Y0080809D01*
X0095320Y0080795D01*
X0095445Y0080778D01*
X0095569Y0080756D01*
X0095692Y0080731D01*
X0095814Y0080701D01*
X0095935Y0080668D01*
X0096055Y0080631D01*
X0096174Y0080591D01*
X0096291Y0080546D01*
X0096408Y0080498D01*
X0096522Y0080446D01*
X0096635Y0080391D01*
X0096746Y0080332D01*
X0096855Y0080270D01*
X0096962Y0080204D01*
X0097067Y0080135D01*
X0097170Y0080063D01*
X0097271Y0079988D01*
X0097369Y0079909D01*
X0097464Y0079827D01*
X0097557Y0079743D01*
X0097647Y0079655D01*
X0097735Y0079565D01*
X0097819Y0079472D01*
X0097901Y0079377D01*
X0097980Y0079279D01*
X0098055Y0079178D01*
X0098127Y0079075D01*
X0098196Y0078970D01*
X0098262Y0078863D01*
X0098324Y0078754D01*
X0098383Y0078643D01*
X0098438Y0078530D01*
X0098490Y0078416D01*
X0098538Y0078299D01*
X0098583Y0078182D01*
X0098623Y0078063D01*
X0098660Y0077943D01*
X0098693Y0077822D01*
X0098723Y0077700D01*
X0098748Y0077577D01*
X0098770Y0077453D01*
X0098787Y0077328D01*
X0098801Y0077203D01*
X0098811Y0077078D01*
X0098817Y0076953D01*
X0098819Y0076827D01*
X0098817Y0076701D01*
X0098811Y0076576D01*
X0098801Y0076451D01*
X0098787Y0076326D01*
X0098770Y0076201D01*
X0098748Y0076077D01*
X0098723Y0075954D01*
X0098693Y0075832D01*
X0098660Y0075711D01*
X0098623Y0075591D01*
X0098583Y0075472D01*
X0098538Y0075355D01*
X0098490Y0075238D01*
X0098438Y0075124D01*
X0098383Y0075011D01*
X0098324Y0074900D01*
X0098262Y0074791D01*
X0098196Y0074684D01*
X0098127Y0074579D01*
X0098055Y0074476D01*
X0097980Y0074375D01*
X0097901Y0074277D01*
X0097819Y0074182D01*
X0097735Y0074089D01*
X0097647Y0073999D01*
X0097557Y0073911D01*
X0097464Y0073827D01*
X0097369Y0073745D01*
X0097271Y0073666D01*
X0097170Y0073591D01*
X0097067Y0073519D01*
X0096962Y0073450D01*
X0096855Y0073384D01*
X0096746Y0073322D01*
X0096635Y0073263D01*
X0096522Y0073208D01*
X0096408Y0073156D01*
X0096291Y0073108D01*
X0096174Y0073063D01*
X0096055Y0073023D01*
X0095935Y0072986D01*
X0095814Y0072953D01*
X0095692Y0072923D01*
X0095569Y0072898D01*
X0095445Y0072876D01*
X0095320Y0072859D01*
X0095195Y0072845D01*
X0095070Y0072835D01*
X0094945Y0072829D01*
X0094819Y0072827D01*
X0094819Y0065327D01*
X0124819Y0065327D01*
X0124819Y0088327D01*
X0094819Y0088327D01*
X0049819Y0088327D02*
X0049819Y0065327D01*
X0019819Y0065327D01*
X0019819Y0072827D01*
X0019945Y0072829D01*
X0020070Y0072835D01*
X0020195Y0072845D01*
X0020320Y0072859D01*
X0020445Y0072876D01*
X0020569Y0072898D01*
X0020692Y0072923D01*
X0020814Y0072953D01*
X0020935Y0072986D01*
X0021055Y0073023D01*
X0021174Y0073063D01*
X0021291Y0073108D01*
X0021408Y0073156D01*
X0021522Y0073208D01*
X0021635Y0073263D01*
X0021746Y0073322D01*
X0021855Y0073384D01*
X0021962Y0073450D01*
X0022067Y0073519D01*
X0022170Y0073591D01*
X0022271Y0073666D01*
X0022369Y0073745D01*
X0022464Y0073827D01*
X0022557Y0073911D01*
X0022647Y0073999D01*
X0022735Y0074089D01*
X0022819Y0074182D01*
X0022901Y0074277D01*
X0022980Y0074375D01*
X0023055Y0074476D01*
X0023127Y0074579D01*
X0023196Y0074684D01*
X0023262Y0074791D01*
X0023324Y0074900D01*
X0023383Y0075011D01*
X0023438Y0075124D01*
X0023490Y0075238D01*
X0023538Y0075355D01*
X0023583Y0075472D01*
X0023623Y0075591D01*
X0023660Y0075711D01*
X0023693Y0075832D01*
X0023723Y0075954D01*
X0023748Y0076077D01*
X0023770Y0076201D01*
X0023787Y0076326D01*
X0023801Y0076451D01*
X0023811Y0076576D01*
X0023817Y0076701D01*
X0023819Y0076827D01*
X0023817Y0076953D01*
X0023811Y0077078D01*
X0023801Y0077203D01*
X0023787Y0077328D01*
X0023770Y0077453D01*
X0023748Y0077577D01*
X0023723Y0077700D01*
X0023693Y0077822D01*
X0023660Y0077943D01*
X0023623Y0078063D01*
X0023583Y0078182D01*
X0023538Y0078299D01*
X0023490Y0078416D01*
X0023438Y0078530D01*
X0023383Y0078643D01*
X0023324Y0078754D01*
X0023262Y0078863D01*
X0023196Y0078970D01*
X0023127Y0079075D01*
X0023055Y0079178D01*
X0022980Y0079279D01*
X0022901Y0079377D01*
X0022819Y0079472D01*
X0022735Y0079565D01*
X0022647Y0079655D01*
X0022557Y0079743D01*
X0022464Y0079827D01*
X0022369Y0079909D01*
X0022271Y0079988D01*
X0022170Y0080063D01*
X0022067Y0080135D01*
X0021962Y0080204D01*
X0021855Y0080270D01*
X0021746Y0080332D01*
X0021635Y0080391D01*
X0021522Y0080446D01*
X0021408Y0080498D01*
X0021291Y0080546D01*
X0021174Y0080591D01*
X0021055Y0080631D01*
X0020935Y0080668D01*
X0020814Y0080701D01*
X0020692Y0080731D01*
X0020569Y0080756D01*
X0020445Y0080778D01*
X0020320Y0080795D01*
X0020195Y0080809D01*
X0020070Y0080819D01*
X0019945Y0080825D01*
X0019819Y0080827D01*
X0019819Y0088327D01*
X0049819Y0088327D01*
X0147350Y0091827D02*
X0158850Y0091327D01*
X0159850Y0090327D01*
X0159850Y0053327D01*
X0158850Y0052327D01*
X0147350Y0051827D01*
X0164819Y0048327D02*
X0124819Y0048327D01*
X0132819Y0043027D02*
X0132821Y0043116D01*
X0132827Y0043205D01*
X0132837Y0043294D01*
X0132851Y0043382D01*
X0132868Y0043469D01*
X0132890Y0043555D01*
X0132916Y0043641D01*
X0132945Y0043725D01*
X0132978Y0043808D01*
X0133014Y0043889D01*
X0133055Y0043969D01*
X0133098Y0044046D01*
X0133145Y0044122D01*
X0133196Y0044195D01*
X0133249Y0044266D01*
X0133306Y0044335D01*
X0133366Y0044401D01*
X0133429Y0044465D01*
X0133494Y0044525D01*
X0133562Y0044583D01*
X0133633Y0044637D01*
X0133706Y0044688D01*
X0133781Y0044736D01*
X0133858Y0044781D01*
X0133937Y0044822D01*
X0134018Y0044859D01*
X0134100Y0044893D01*
X0134184Y0044924D01*
X0134269Y0044950D01*
X0134355Y0044973D01*
X0134442Y0044991D01*
X0134530Y0045006D01*
X0134619Y0045017D01*
X0134708Y0045024D01*
X0134797Y0045027D01*
X0134886Y0045026D01*
X0134975Y0045021D01*
X0135063Y0045012D01*
X0135152Y0044999D01*
X0135239Y0044982D01*
X0135326Y0044962D01*
X0135412Y0044937D01*
X0135496Y0044909D01*
X0135579Y0044877D01*
X0135661Y0044841D01*
X0135741Y0044802D01*
X0135819Y0044759D01*
X0135895Y0044713D01*
X0135969Y0044663D01*
X0136041Y0044610D01*
X0136110Y0044554D01*
X0136177Y0044495D01*
X0136241Y0044433D01*
X0136302Y0044369D01*
X0136361Y0044301D01*
X0136416Y0044231D01*
X0136468Y0044159D01*
X0136517Y0044084D01*
X0136562Y0044008D01*
X0136604Y0043929D01*
X0136642Y0043849D01*
X0136677Y0043767D01*
X0136708Y0043683D01*
X0136736Y0043598D01*
X0136759Y0043512D01*
X0136779Y0043425D01*
X0136795Y0043338D01*
X0136807Y0043249D01*
X0136815Y0043161D01*
X0136819Y0043072D01*
X0136819Y0042982D01*
X0136815Y0042893D01*
X0136807Y0042805D01*
X0136795Y0042716D01*
X0136779Y0042629D01*
X0136759Y0042542D01*
X0136736Y0042456D01*
X0136708Y0042371D01*
X0136677Y0042287D01*
X0136642Y0042205D01*
X0136604Y0042125D01*
X0136562Y0042046D01*
X0136517Y0041970D01*
X0136468Y0041895D01*
X0136416Y0041823D01*
X0136361Y0041753D01*
X0136302Y0041685D01*
X0136241Y0041621D01*
X0136177Y0041559D01*
X0136110Y0041500D01*
X0136041Y0041444D01*
X0135969Y0041391D01*
X0135895Y0041341D01*
X0135819Y0041295D01*
X0135741Y0041252D01*
X0135661Y0041213D01*
X0135579Y0041177D01*
X0135496Y0041145D01*
X0135412Y0041117D01*
X0135326Y0041092D01*
X0135239Y0041072D01*
X0135152Y0041055D01*
X0135063Y0041042D01*
X0134975Y0041033D01*
X0134886Y0041028D01*
X0134797Y0041027D01*
X0134708Y0041030D01*
X0134619Y0041037D01*
X0134530Y0041048D01*
X0134442Y0041063D01*
X0134355Y0041081D01*
X0134269Y0041104D01*
X0134184Y0041130D01*
X0134100Y0041161D01*
X0134018Y0041195D01*
X0133937Y0041232D01*
X0133858Y0041273D01*
X0133781Y0041318D01*
X0133706Y0041366D01*
X0133633Y0041417D01*
X0133562Y0041471D01*
X0133494Y0041529D01*
X0133429Y0041589D01*
X0133366Y0041653D01*
X0133306Y0041719D01*
X0133249Y0041788D01*
X0133196Y0041859D01*
X0133145Y0041932D01*
X0133098Y0042008D01*
X0133055Y0042085D01*
X0133014Y0042165D01*
X0132978Y0042246D01*
X0132945Y0042329D01*
X0132916Y0042413D01*
X0132890Y0042499D01*
X0132868Y0042585D01*
X0132851Y0042672D01*
X0132837Y0042760D01*
X0132827Y0042849D01*
X0132821Y0042938D01*
X0132819Y0043027D01*
X0152819Y0043027D02*
X0152821Y0043116D01*
X0152827Y0043205D01*
X0152837Y0043294D01*
X0152851Y0043382D01*
X0152868Y0043469D01*
X0152890Y0043555D01*
X0152916Y0043641D01*
X0152945Y0043725D01*
X0152978Y0043808D01*
X0153014Y0043889D01*
X0153055Y0043969D01*
X0153098Y0044046D01*
X0153145Y0044122D01*
X0153196Y0044195D01*
X0153249Y0044266D01*
X0153306Y0044335D01*
X0153366Y0044401D01*
X0153429Y0044465D01*
X0153494Y0044525D01*
X0153562Y0044583D01*
X0153633Y0044637D01*
X0153706Y0044688D01*
X0153781Y0044736D01*
X0153858Y0044781D01*
X0153937Y0044822D01*
X0154018Y0044859D01*
X0154100Y0044893D01*
X0154184Y0044924D01*
X0154269Y0044950D01*
X0154355Y0044973D01*
X0154442Y0044991D01*
X0154530Y0045006D01*
X0154619Y0045017D01*
X0154708Y0045024D01*
X0154797Y0045027D01*
X0154886Y0045026D01*
X0154975Y0045021D01*
X0155063Y0045012D01*
X0155152Y0044999D01*
X0155239Y0044982D01*
X0155326Y0044962D01*
X0155412Y0044937D01*
X0155496Y0044909D01*
X0155579Y0044877D01*
X0155661Y0044841D01*
X0155741Y0044802D01*
X0155819Y0044759D01*
X0155895Y0044713D01*
X0155969Y0044663D01*
X0156041Y0044610D01*
X0156110Y0044554D01*
X0156177Y0044495D01*
X0156241Y0044433D01*
X0156302Y0044369D01*
X0156361Y0044301D01*
X0156416Y0044231D01*
X0156468Y0044159D01*
X0156517Y0044084D01*
X0156562Y0044008D01*
X0156604Y0043929D01*
X0156642Y0043849D01*
X0156677Y0043767D01*
X0156708Y0043683D01*
X0156736Y0043598D01*
X0156759Y0043512D01*
X0156779Y0043425D01*
X0156795Y0043338D01*
X0156807Y0043249D01*
X0156815Y0043161D01*
X0156819Y0043072D01*
X0156819Y0042982D01*
X0156815Y0042893D01*
X0156807Y0042805D01*
X0156795Y0042716D01*
X0156779Y0042629D01*
X0156759Y0042542D01*
X0156736Y0042456D01*
X0156708Y0042371D01*
X0156677Y0042287D01*
X0156642Y0042205D01*
X0156604Y0042125D01*
X0156562Y0042046D01*
X0156517Y0041970D01*
X0156468Y0041895D01*
X0156416Y0041823D01*
X0156361Y0041753D01*
X0156302Y0041685D01*
X0156241Y0041621D01*
X0156177Y0041559D01*
X0156110Y0041500D01*
X0156041Y0041444D01*
X0155969Y0041391D01*
X0155895Y0041341D01*
X0155819Y0041295D01*
X0155741Y0041252D01*
X0155661Y0041213D01*
X0155579Y0041177D01*
X0155496Y0041145D01*
X0155412Y0041117D01*
X0155326Y0041092D01*
X0155239Y0041072D01*
X0155152Y0041055D01*
X0155063Y0041042D01*
X0154975Y0041033D01*
X0154886Y0041028D01*
X0154797Y0041027D01*
X0154708Y0041030D01*
X0154619Y0041037D01*
X0154530Y0041048D01*
X0154442Y0041063D01*
X0154355Y0041081D01*
X0154269Y0041104D01*
X0154184Y0041130D01*
X0154100Y0041161D01*
X0154018Y0041195D01*
X0153937Y0041232D01*
X0153858Y0041273D01*
X0153781Y0041318D01*
X0153706Y0041366D01*
X0153633Y0041417D01*
X0153562Y0041471D01*
X0153494Y0041529D01*
X0153429Y0041589D01*
X0153366Y0041653D01*
X0153306Y0041719D01*
X0153249Y0041788D01*
X0153196Y0041859D01*
X0153145Y0041932D01*
X0153098Y0042008D01*
X0153055Y0042085D01*
X0153014Y0042165D01*
X0152978Y0042246D01*
X0152945Y0042329D01*
X0152916Y0042413D01*
X0152890Y0042499D01*
X0152868Y0042585D01*
X0152851Y0042672D01*
X0152837Y0042760D01*
X0152827Y0042849D01*
X0152821Y0042938D01*
X0152819Y0043027D01*
X0169819Y0065327D02*
X0169819Y0072827D01*
X0169945Y0072829D01*
X0170070Y0072835D01*
X0170195Y0072845D01*
X0170320Y0072859D01*
X0170445Y0072876D01*
X0170569Y0072898D01*
X0170692Y0072923D01*
X0170814Y0072953D01*
X0170935Y0072986D01*
X0171055Y0073023D01*
X0171174Y0073063D01*
X0171291Y0073108D01*
X0171408Y0073156D01*
X0171522Y0073208D01*
X0171635Y0073263D01*
X0171746Y0073322D01*
X0171855Y0073384D01*
X0171962Y0073450D01*
X0172067Y0073519D01*
X0172170Y0073591D01*
X0172271Y0073666D01*
X0172369Y0073745D01*
X0172464Y0073827D01*
X0172557Y0073911D01*
X0172647Y0073999D01*
X0172735Y0074089D01*
X0172819Y0074182D01*
X0172901Y0074277D01*
X0172980Y0074375D01*
X0173055Y0074476D01*
X0173127Y0074579D01*
X0173196Y0074684D01*
X0173262Y0074791D01*
X0173324Y0074900D01*
X0173383Y0075011D01*
X0173438Y0075124D01*
X0173490Y0075238D01*
X0173538Y0075355D01*
X0173583Y0075472D01*
X0173623Y0075591D01*
X0173660Y0075711D01*
X0173693Y0075832D01*
X0173723Y0075954D01*
X0173748Y0076077D01*
X0173770Y0076201D01*
X0173787Y0076326D01*
X0173801Y0076451D01*
X0173811Y0076576D01*
X0173817Y0076701D01*
X0173819Y0076827D01*
X0173817Y0076953D01*
X0173811Y0077078D01*
X0173801Y0077203D01*
X0173787Y0077328D01*
X0173770Y0077453D01*
X0173748Y0077577D01*
X0173723Y0077700D01*
X0173693Y0077822D01*
X0173660Y0077943D01*
X0173623Y0078063D01*
X0173583Y0078182D01*
X0173538Y0078299D01*
X0173490Y0078416D01*
X0173438Y0078530D01*
X0173383Y0078643D01*
X0173324Y0078754D01*
X0173262Y0078863D01*
X0173196Y0078970D01*
X0173127Y0079075D01*
X0173055Y0079178D01*
X0172980Y0079279D01*
X0172901Y0079377D01*
X0172819Y0079472D01*
X0172735Y0079565D01*
X0172647Y0079655D01*
X0172557Y0079743D01*
X0172464Y0079827D01*
X0172369Y0079909D01*
X0172271Y0079988D01*
X0172170Y0080063D01*
X0172067Y0080135D01*
X0171962Y0080204D01*
X0171855Y0080270D01*
X0171746Y0080332D01*
X0171635Y0080391D01*
X0171522Y0080446D01*
X0171408Y0080498D01*
X0171291Y0080546D01*
X0171174Y0080591D01*
X0171055Y0080631D01*
X0170935Y0080668D01*
X0170814Y0080701D01*
X0170692Y0080731D01*
X0170569Y0080756D01*
X0170445Y0080778D01*
X0170320Y0080795D01*
X0170195Y0080809D01*
X0170070Y0080819D01*
X0169945Y0080825D01*
X0169819Y0080827D01*
X0169819Y0088327D01*
X0199819Y0088327D01*
X0199819Y0065327D01*
X0169819Y0065327D01*
X0233850Y0091327D02*
X0234850Y0090327D01*
X0233850Y0091327D02*
X0222350Y0091827D01*
X0077819Y0043027D02*
X0077821Y0043116D01*
X0077827Y0043205D01*
X0077837Y0043294D01*
X0077851Y0043382D01*
X0077868Y0043469D01*
X0077890Y0043555D01*
X0077916Y0043641D01*
X0077945Y0043725D01*
X0077978Y0043808D01*
X0078014Y0043889D01*
X0078055Y0043969D01*
X0078098Y0044046D01*
X0078145Y0044122D01*
X0078196Y0044195D01*
X0078249Y0044266D01*
X0078306Y0044335D01*
X0078366Y0044401D01*
X0078429Y0044465D01*
X0078494Y0044525D01*
X0078562Y0044583D01*
X0078633Y0044637D01*
X0078706Y0044688D01*
X0078781Y0044736D01*
X0078858Y0044781D01*
X0078937Y0044822D01*
X0079018Y0044859D01*
X0079100Y0044893D01*
X0079184Y0044924D01*
X0079269Y0044950D01*
X0079355Y0044973D01*
X0079442Y0044991D01*
X0079530Y0045006D01*
X0079619Y0045017D01*
X0079708Y0045024D01*
X0079797Y0045027D01*
X0079886Y0045026D01*
X0079975Y0045021D01*
X0080063Y0045012D01*
X0080152Y0044999D01*
X0080239Y0044982D01*
X0080326Y0044962D01*
X0080412Y0044937D01*
X0080496Y0044909D01*
X0080579Y0044877D01*
X0080661Y0044841D01*
X0080741Y0044802D01*
X0080819Y0044759D01*
X0080895Y0044713D01*
X0080969Y0044663D01*
X0081041Y0044610D01*
X0081110Y0044554D01*
X0081177Y0044495D01*
X0081241Y0044433D01*
X0081302Y0044369D01*
X0081361Y0044301D01*
X0081416Y0044231D01*
X0081468Y0044159D01*
X0081517Y0044084D01*
X0081562Y0044008D01*
X0081604Y0043929D01*
X0081642Y0043849D01*
X0081677Y0043767D01*
X0081708Y0043683D01*
X0081736Y0043598D01*
X0081759Y0043512D01*
X0081779Y0043425D01*
X0081795Y0043338D01*
X0081807Y0043249D01*
X0081815Y0043161D01*
X0081819Y0043072D01*
X0081819Y0042982D01*
X0081815Y0042893D01*
X0081807Y0042805D01*
X0081795Y0042716D01*
X0081779Y0042629D01*
X0081759Y0042542D01*
X0081736Y0042456D01*
X0081708Y0042371D01*
X0081677Y0042287D01*
X0081642Y0042205D01*
X0081604Y0042125D01*
X0081562Y0042046D01*
X0081517Y0041970D01*
X0081468Y0041895D01*
X0081416Y0041823D01*
X0081361Y0041753D01*
X0081302Y0041685D01*
X0081241Y0041621D01*
X0081177Y0041559D01*
X0081110Y0041500D01*
X0081041Y0041444D01*
X0080969Y0041391D01*
X0080895Y0041341D01*
X0080819Y0041295D01*
X0080741Y0041252D01*
X0080661Y0041213D01*
X0080579Y0041177D01*
X0080496Y0041145D01*
X0080412Y0041117D01*
X0080326Y0041092D01*
X0080239Y0041072D01*
X0080152Y0041055D01*
X0080063Y0041042D01*
X0079975Y0041033D01*
X0079886Y0041028D01*
X0079797Y0041027D01*
X0079708Y0041030D01*
X0079619Y0041037D01*
X0079530Y0041048D01*
X0079442Y0041063D01*
X0079355Y0041081D01*
X0079269Y0041104D01*
X0079184Y0041130D01*
X0079100Y0041161D01*
X0079018Y0041195D01*
X0078937Y0041232D01*
X0078858Y0041273D01*
X0078781Y0041318D01*
X0078706Y0041366D01*
X0078633Y0041417D01*
X0078562Y0041471D01*
X0078494Y0041529D01*
X0078429Y0041589D01*
X0078366Y0041653D01*
X0078306Y0041719D01*
X0078249Y0041788D01*
X0078196Y0041859D01*
X0078145Y0041932D01*
X0078098Y0042008D01*
X0078055Y0042085D01*
X0078014Y0042165D01*
X0077978Y0042246D01*
X0077945Y0042329D01*
X0077916Y0042413D01*
X0077890Y0042499D01*
X0077868Y0042585D01*
X0077851Y0042672D01*
X0077837Y0042760D01*
X0077827Y0042849D01*
X0077821Y0042938D01*
X0077819Y0043027D01*
X0274819Y0022327D02*
X0281319Y0022327D01*
X0288319Y0022327D02*
X0301319Y0022327D01*
X0308319Y0022327D02*
X0314819Y0022327D01*
D13*
X0287319Y0015077D02*
X0284819Y0015077D01*
X0286069Y0015077D02*
X0286069Y0019577D01*
X0284819Y0018577D01*
X0283069Y0019577D02*
X0280069Y0015077D01*
X0283069Y0015077D02*
X0280069Y0019577D01*
X0212319Y0015077D02*
X0209819Y0015077D01*
X0211944Y0017577D01*
X0211194Y0019576D02*
X0211121Y0019574D01*
X0211049Y0019569D01*
X0210977Y0019560D01*
X0210905Y0019547D01*
X0210834Y0019531D01*
X0210764Y0019511D01*
X0210696Y0019487D01*
X0210628Y0019461D01*
X0210562Y0019430D01*
X0210497Y0019397D01*
X0210435Y0019360D01*
X0210374Y0019321D01*
X0210315Y0019278D01*
X0210258Y0019232D01*
X0210204Y0019184D01*
X0210153Y0019133D01*
X0210103Y0019079D01*
X0210057Y0019023D01*
X0210014Y0018965D01*
X0209973Y0018904D01*
X0209936Y0018842D01*
X0209902Y0018778D01*
X0209871Y0018712D01*
X0209843Y0018645D01*
X0209819Y0018576D01*
X0211944Y0017577D02*
X0211990Y0017623D01*
X0212034Y0017672D01*
X0212074Y0017723D01*
X0212112Y0017776D01*
X0212147Y0017831D01*
X0212179Y0017888D01*
X0212208Y0017946D01*
X0212234Y0018006D01*
X0212256Y0018068D01*
X0212275Y0018130D01*
X0212291Y0018193D01*
X0212303Y0018257D01*
X0212312Y0018322D01*
X0212317Y0018387D01*
X0212319Y0018452D01*
X0212317Y0018517D01*
X0212311Y0018583D01*
X0212302Y0018647D01*
X0212289Y0018711D01*
X0212272Y0018775D01*
X0212251Y0018837D01*
X0212227Y0018898D01*
X0212199Y0018957D01*
X0212168Y0019015D01*
X0212134Y0019070D01*
X0212096Y0019124D01*
X0212056Y0019175D01*
X0212012Y0019224D01*
X0211966Y0019270D01*
X0211917Y0019314D01*
X0211866Y0019354D01*
X0211812Y0019392D01*
X0211757Y0019426D01*
X0211699Y0019457D01*
X0211640Y0019485D01*
X0211579Y0019509D01*
X0211517Y0019530D01*
X0211453Y0019547D01*
X0211389Y0019560D01*
X0211325Y0019569D01*
X0211259Y0019575D01*
X0211194Y0019577D01*
X0208069Y0019577D02*
X0205069Y0015077D01*
X0208069Y0015077D02*
X0205069Y0019577D01*
X0136319Y0019577D02*
X0134819Y0019577D01*
X0133069Y0019577D02*
X0130069Y0015077D01*
X0133069Y0015077D02*
X0130069Y0019577D01*
X0135319Y0017577D02*
X0136319Y0017577D01*
X0136381Y0017579D01*
X0136442Y0017585D01*
X0136503Y0017594D01*
X0136563Y0017607D01*
X0136622Y0017624D01*
X0136680Y0017645D01*
X0136737Y0017669D01*
X0136792Y0017696D01*
X0136845Y0017727D01*
X0136897Y0017761D01*
X0136946Y0017798D01*
X0136993Y0017838D01*
X0137037Y0017881D01*
X0137078Y0017926D01*
X0137117Y0017974D01*
X0137153Y0018025D01*
X0137185Y0018077D01*
X0137214Y0018131D01*
X0137240Y0018187D01*
X0137262Y0018245D01*
X0137281Y0018303D01*
X0137296Y0018363D01*
X0137307Y0018424D01*
X0137315Y0018485D01*
X0137319Y0018546D01*
X0137319Y0018608D01*
X0137315Y0018669D01*
X0137307Y0018730D01*
X0137296Y0018791D01*
X0137281Y0018851D01*
X0137262Y0018909D01*
X0137240Y0018967D01*
X0137214Y0019023D01*
X0137185Y0019077D01*
X0137153Y0019129D01*
X0137117Y0019180D01*
X0137078Y0019228D01*
X0137037Y0019273D01*
X0136993Y0019316D01*
X0136946Y0019356D01*
X0136897Y0019393D01*
X0136845Y0019427D01*
X0136792Y0019458D01*
X0136737Y0019485D01*
X0136680Y0019509D01*
X0136622Y0019530D01*
X0136563Y0019547D01*
X0136503Y0019560D01*
X0136442Y0019569D01*
X0136381Y0019575D01*
X0136319Y0019577D01*
X0136069Y0017577D02*
X0136138Y0017575D01*
X0136207Y0017569D01*
X0136275Y0017560D01*
X0136342Y0017547D01*
X0136409Y0017530D01*
X0136475Y0017509D01*
X0136539Y0017485D01*
X0136602Y0017457D01*
X0136664Y0017426D01*
X0136724Y0017392D01*
X0136781Y0017354D01*
X0136837Y0017313D01*
X0136890Y0017270D01*
X0136941Y0017223D01*
X0136989Y0017174D01*
X0137034Y0017122D01*
X0137076Y0017067D01*
X0137115Y0017011D01*
X0137152Y0016952D01*
X0137184Y0016891D01*
X0137214Y0016829D01*
X0137240Y0016765D01*
X0137262Y0016700D01*
X0137281Y0016634D01*
X0137296Y0016567D01*
X0137307Y0016499D01*
X0137315Y0016430D01*
X0137319Y0016361D01*
X0137319Y0016293D01*
X0137315Y0016224D01*
X0137307Y0016155D01*
X0137296Y0016087D01*
X0137281Y0016020D01*
X0137262Y0015954D01*
X0137240Y0015889D01*
X0137214Y0015825D01*
X0137184Y0015763D01*
X0137152Y0015702D01*
X0137115Y0015643D01*
X0137076Y0015587D01*
X0137034Y0015532D01*
X0136989Y0015480D01*
X0136941Y0015431D01*
X0136890Y0015384D01*
X0136837Y0015341D01*
X0136781Y0015300D01*
X0136724Y0015262D01*
X0136664Y0015228D01*
X0136602Y0015197D01*
X0136539Y0015169D01*
X0136475Y0015145D01*
X0136409Y0015124D01*
X0136342Y0015107D01*
X0136275Y0015094D01*
X0136207Y0015085D01*
X0136138Y0015079D01*
X0136069Y0015077D01*
X0134819Y0015077D01*
X0062319Y0016077D02*
X0059819Y0016077D01*
X0060819Y0019577D01*
X0058069Y0019577D02*
X0055069Y0015077D01*
X0058069Y0015077D02*
X0055069Y0019577D01*
X0061569Y0017077D02*
X0061569Y0015077D01*
X0088869Y0052077D02*
X0088869Y0054577D01*
X0088869Y0053327D02*
X0093369Y0053327D01*
X0092369Y0056277D02*
X0092369Y0058777D01*
X0091369Y0058027D02*
X0093369Y0058027D01*
X0092369Y0056277D02*
X0088869Y0057277D01*
X0090319Y0065577D02*
X0092319Y0065577D01*
X0092388Y0065579D01*
X0092457Y0065585D01*
X0092525Y0065594D01*
X0092592Y0065607D01*
X0092659Y0065624D01*
X0092725Y0065645D01*
X0092789Y0065669D01*
X0092852Y0065697D01*
X0092914Y0065728D01*
X0092974Y0065762D01*
X0093031Y0065800D01*
X0093087Y0065841D01*
X0093140Y0065884D01*
X0093191Y0065931D01*
X0093239Y0065980D01*
X0093284Y0066032D01*
X0093326Y0066087D01*
X0093365Y0066143D01*
X0093402Y0066202D01*
X0093434Y0066263D01*
X0093464Y0066325D01*
X0093490Y0066389D01*
X0093512Y0066454D01*
X0093531Y0066520D01*
X0093546Y0066587D01*
X0093557Y0066655D01*
X0093565Y0066724D01*
X0093569Y0066793D01*
X0093569Y0066861D01*
X0093565Y0066930D01*
X0093557Y0066999D01*
X0093546Y0067067D01*
X0093531Y0067134D01*
X0093512Y0067200D01*
X0093490Y0067265D01*
X0093464Y0067329D01*
X0093434Y0067391D01*
X0093402Y0067452D01*
X0093365Y0067511D01*
X0093326Y0067567D01*
X0093284Y0067622D01*
X0093239Y0067674D01*
X0093191Y0067723D01*
X0093140Y0067770D01*
X0093087Y0067813D01*
X0093031Y0067854D01*
X0092974Y0067892D01*
X0092914Y0067926D01*
X0092852Y0067957D01*
X0092789Y0067985D01*
X0092725Y0068009D01*
X0092659Y0068030D01*
X0092592Y0068047D01*
X0092525Y0068060D01*
X0092457Y0068069D01*
X0092388Y0068075D01*
X0092319Y0068077D01*
X0090319Y0068077D01*
X0090250Y0068075D01*
X0090181Y0068069D01*
X0090113Y0068060D01*
X0090046Y0068047D01*
X0089979Y0068030D01*
X0089913Y0068009D01*
X0089849Y0067985D01*
X0089786Y0067957D01*
X0089724Y0067926D01*
X0089664Y0067892D01*
X0089607Y0067854D01*
X0089551Y0067813D01*
X0089498Y0067770D01*
X0089447Y0067723D01*
X0089399Y0067674D01*
X0089354Y0067622D01*
X0089312Y0067567D01*
X0089273Y0067511D01*
X0089236Y0067452D01*
X0089204Y0067391D01*
X0089174Y0067329D01*
X0089148Y0067265D01*
X0089126Y0067200D01*
X0089107Y0067134D01*
X0089092Y0067067D01*
X0089081Y0066999D01*
X0089073Y0066930D01*
X0089069Y0066861D01*
X0089069Y0066793D01*
X0089073Y0066724D01*
X0089081Y0066655D01*
X0089092Y0066587D01*
X0089107Y0066520D01*
X0089126Y0066454D01*
X0089148Y0066389D01*
X0089174Y0066325D01*
X0089204Y0066263D01*
X0089236Y0066202D01*
X0089273Y0066143D01*
X0089312Y0066087D01*
X0089354Y0066032D01*
X0089399Y0065980D01*
X0089447Y0065931D01*
X0089498Y0065884D01*
X0089551Y0065841D01*
X0089607Y0065800D01*
X0089664Y0065762D01*
X0089724Y0065728D01*
X0089786Y0065697D01*
X0089849Y0065669D01*
X0089913Y0065645D01*
X0089979Y0065624D01*
X0090046Y0065607D01*
X0090113Y0065594D01*
X0090181Y0065585D01*
X0090250Y0065579D01*
X0090319Y0065577D01*
X0089069Y0070302D02*
X0093569Y0070302D01*
X0091819Y0070302D02*
X0089069Y0072802D01*
X0089069Y0074577D02*
X0089069Y0076077D01*
X0089071Y0076139D01*
X0089077Y0076200D01*
X0089086Y0076261D01*
X0089099Y0076321D01*
X0089116Y0076380D01*
X0089137Y0076438D01*
X0089161Y0076495D01*
X0089188Y0076550D01*
X0089219Y0076603D01*
X0089253Y0076655D01*
X0089290Y0076704D01*
X0089330Y0076751D01*
X0089373Y0076795D01*
X0089418Y0076836D01*
X0089466Y0076875D01*
X0089517Y0076911D01*
X0089569Y0076943D01*
X0089623Y0076972D01*
X0089679Y0076998D01*
X0089737Y0077020D01*
X0089795Y0077039D01*
X0089855Y0077054D01*
X0089916Y0077065D01*
X0089977Y0077073D01*
X0090038Y0077077D01*
X0090100Y0077077D01*
X0090161Y0077073D01*
X0090222Y0077065D01*
X0090283Y0077054D01*
X0090343Y0077039D01*
X0090401Y0077020D01*
X0090459Y0076998D01*
X0090515Y0076972D01*
X0090569Y0076943D01*
X0090621Y0076911D01*
X0090672Y0076875D01*
X0090720Y0076836D01*
X0090765Y0076795D01*
X0090808Y0076751D01*
X0090848Y0076704D01*
X0090885Y0076655D01*
X0090919Y0076603D01*
X0090950Y0076550D01*
X0090977Y0076495D01*
X0091001Y0076438D01*
X0091022Y0076380D01*
X0091039Y0076321D01*
X0091052Y0076261D01*
X0091061Y0076200D01*
X0091067Y0076139D01*
X0091069Y0076077D01*
X0091069Y0075077D01*
X0091069Y0075827D02*
X0091071Y0075896D01*
X0091077Y0075965D01*
X0091086Y0076033D01*
X0091099Y0076100D01*
X0091116Y0076167D01*
X0091137Y0076233D01*
X0091161Y0076297D01*
X0091189Y0076360D01*
X0091220Y0076422D01*
X0091254Y0076482D01*
X0091292Y0076539D01*
X0091333Y0076595D01*
X0091376Y0076648D01*
X0091423Y0076699D01*
X0091472Y0076747D01*
X0091524Y0076792D01*
X0091579Y0076834D01*
X0091635Y0076873D01*
X0091694Y0076910D01*
X0091755Y0076942D01*
X0091817Y0076972D01*
X0091881Y0076998D01*
X0091946Y0077020D01*
X0092012Y0077039D01*
X0092079Y0077054D01*
X0092147Y0077065D01*
X0092216Y0077073D01*
X0092285Y0077077D01*
X0092353Y0077077D01*
X0092422Y0077073D01*
X0092491Y0077065D01*
X0092559Y0077054D01*
X0092626Y0077039D01*
X0092692Y0077020D01*
X0092757Y0076998D01*
X0092821Y0076972D01*
X0092883Y0076942D01*
X0092944Y0076910D01*
X0093003Y0076873D01*
X0093059Y0076834D01*
X0093114Y0076792D01*
X0093166Y0076747D01*
X0093215Y0076699D01*
X0093262Y0076648D01*
X0093305Y0076595D01*
X0093346Y0076539D01*
X0093384Y0076482D01*
X0093418Y0076422D01*
X0093449Y0076360D01*
X0093477Y0076297D01*
X0093501Y0076233D01*
X0093522Y0076167D01*
X0093539Y0076100D01*
X0093552Y0076033D01*
X0093561Y0075965D01*
X0093567Y0075896D01*
X0093569Y0075827D01*
X0093569Y0074577D01*
X0093569Y0072802D02*
X0090819Y0071302D01*
X0161900Y0057777D02*
X0161900Y0056277D01*
X0161900Y0054577D02*
X0161900Y0052077D01*
X0161900Y0053327D02*
X0166400Y0053327D01*
X0166400Y0056277D02*
X0166400Y0057527D01*
X0166398Y0057596D01*
X0166392Y0057665D01*
X0166383Y0057733D01*
X0166370Y0057800D01*
X0166353Y0057867D01*
X0166332Y0057933D01*
X0166308Y0057997D01*
X0166280Y0058060D01*
X0166249Y0058122D01*
X0166215Y0058182D01*
X0166177Y0058239D01*
X0166136Y0058295D01*
X0166093Y0058348D01*
X0166046Y0058399D01*
X0165997Y0058447D01*
X0165945Y0058492D01*
X0165890Y0058534D01*
X0165834Y0058573D01*
X0165775Y0058610D01*
X0165714Y0058642D01*
X0165652Y0058672D01*
X0165588Y0058698D01*
X0165523Y0058720D01*
X0165457Y0058739D01*
X0165390Y0058754D01*
X0165322Y0058765D01*
X0165253Y0058773D01*
X0165184Y0058777D01*
X0165116Y0058777D01*
X0165047Y0058773D01*
X0164978Y0058765D01*
X0164910Y0058754D01*
X0164843Y0058739D01*
X0164777Y0058720D01*
X0164712Y0058698D01*
X0164648Y0058672D01*
X0164586Y0058642D01*
X0164525Y0058610D01*
X0164466Y0058573D01*
X0164410Y0058534D01*
X0164355Y0058492D01*
X0164303Y0058447D01*
X0164254Y0058399D01*
X0164207Y0058348D01*
X0164164Y0058295D01*
X0164123Y0058239D01*
X0164085Y0058182D01*
X0164051Y0058122D01*
X0164020Y0058060D01*
X0163992Y0057997D01*
X0163968Y0057933D01*
X0163947Y0057867D01*
X0163930Y0057800D01*
X0163917Y0057733D01*
X0163908Y0057665D01*
X0163902Y0057596D01*
X0163900Y0057527D01*
X0163900Y0057777D02*
X0163900Y0056777D01*
X0163900Y0057777D02*
X0163898Y0057839D01*
X0163892Y0057900D01*
X0163883Y0057961D01*
X0163870Y0058021D01*
X0163853Y0058080D01*
X0163832Y0058138D01*
X0163808Y0058195D01*
X0163781Y0058250D01*
X0163750Y0058303D01*
X0163716Y0058355D01*
X0163679Y0058404D01*
X0163639Y0058451D01*
X0163596Y0058495D01*
X0163551Y0058536D01*
X0163503Y0058575D01*
X0163452Y0058611D01*
X0163400Y0058643D01*
X0163346Y0058672D01*
X0163290Y0058698D01*
X0163232Y0058720D01*
X0163174Y0058739D01*
X0163114Y0058754D01*
X0163053Y0058765D01*
X0162992Y0058773D01*
X0162931Y0058777D01*
X0162869Y0058777D01*
X0162808Y0058773D01*
X0162747Y0058765D01*
X0162686Y0058754D01*
X0162626Y0058739D01*
X0162568Y0058720D01*
X0162510Y0058698D01*
X0162454Y0058672D01*
X0162400Y0058643D01*
X0162348Y0058611D01*
X0162297Y0058575D01*
X0162249Y0058536D01*
X0162204Y0058495D01*
X0162161Y0058451D01*
X0162121Y0058404D01*
X0162084Y0058355D01*
X0162050Y0058303D01*
X0162019Y0058250D01*
X0161992Y0058195D01*
X0161968Y0058138D01*
X0161947Y0058080D01*
X0161930Y0058021D01*
X0161917Y0057961D01*
X0161908Y0057900D01*
X0161902Y0057839D01*
X0161900Y0057777D01*
X0165319Y0065577D02*
X0167319Y0065577D01*
X0167388Y0065579D01*
X0167457Y0065585D01*
X0167525Y0065594D01*
X0167592Y0065607D01*
X0167659Y0065624D01*
X0167725Y0065645D01*
X0167789Y0065669D01*
X0167852Y0065697D01*
X0167914Y0065728D01*
X0167974Y0065762D01*
X0168031Y0065800D01*
X0168087Y0065841D01*
X0168140Y0065884D01*
X0168191Y0065931D01*
X0168239Y0065980D01*
X0168284Y0066032D01*
X0168326Y0066087D01*
X0168365Y0066143D01*
X0168402Y0066202D01*
X0168434Y0066263D01*
X0168464Y0066325D01*
X0168490Y0066389D01*
X0168512Y0066454D01*
X0168531Y0066520D01*
X0168546Y0066587D01*
X0168557Y0066655D01*
X0168565Y0066724D01*
X0168569Y0066793D01*
X0168569Y0066861D01*
X0168565Y0066930D01*
X0168557Y0066999D01*
X0168546Y0067067D01*
X0168531Y0067134D01*
X0168512Y0067200D01*
X0168490Y0067265D01*
X0168464Y0067329D01*
X0168434Y0067391D01*
X0168402Y0067452D01*
X0168365Y0067511D01*
X0168326Y0067567D01*
X0168284Y0067622D01*
X0168239Y0067674D01*
X0168191Y0067723D01*
X0168140Y0067770D01*
X0168087Y0067813D01*
X0168031Y0067854D01*
X0167974Y0067892D01*
X0167914Y0067926D01*
X0167852Y0067957D01*
X0167789Y0067985D01*
X0167725Y0068009D01*
X0167659Y0068030D01*
X0167592Y0068047D01*
X0167525Y0068060D01*
X0167457Y0068069D01*
X0167388Y0068075D01*
X0167319Y0068077D01*
X0165319Y0068077D01*
X0165250Y0068075D01*
X0165181Y0068069D01*
X0165113Y0068060D01*
X0165046Y0068047D01*
X0164979Y0068030D01*
X0164913Y0068009D01*
X0164849Y0067985D01*
X0164786Y0067957D01*
X0164724Y0067926D01*
X0164664Y0067892D01*
X0164607Y0067854D01*
X0164551Y0067813D01*
X0164498Y0067770D01*
X0164447Y0067723D01*
X0164399Y0067674D01*
X0164354Y0067622D01*
X0164312Y0067567D01*
X0164273Y0067511D01*
X0164236Y0067452D01*
X0164204Y0067391D01*
X0164174Y0067329D01*
X0164148Y0067265D01*
X0164126Y0067200D01*
X0164107Y0067134D01*
X0164092Y0067067D01*
X0164081Y0066999D01*
X0164073Y0066930D01*
X0164069Y0066861D01*
X0164069Y0066793D01*
X0164073Y0066724D01*
X0164081Y0066655D01*
X0164092Y0066587D01*
X0164107Y0066520D01*
X0164126Y0066454D01*
X0164148Y0066389D01*
X0164174Y0066325D01*
X0164204Y0066263D01*
X0164236Y0066202D01*
X0164273Y0066143D01*
X0164312Y0066087D01*
X0164354Y0066032D01*
X0164399Y0065980D01*
X0164447Y0065931D01*
X0164498Y0065884D01*
X0164551Y0065841D01*
X0164607Y0065800D01*
X0164664Y0065762D01*
X0164724Y0065728D01*
X0164786Y0065697D01*
X0164849Y0065669D01*
X0164913Y0065645D01*
X0164979Y0065624D01*
X0165046Y0065607D01*
X0165113Y0065594D01*
X0165181Y0065585D01*
X0165250Y0065579D01*
X0165319Y0065577D01*
X0164069Y0070302D02*
X0168569Y0070302D01*
X0166819Y0070302D02*
X0164069Y0072802D01*
X0165819Y0071302D02*
X0168569Y0072802D01*
X0168569Y0074577D02*
X0168569Y0077077D01*
X0168569Y0074577D02*
X0166069Y0076702D01*
X0164069Y0075952D02*
X0164071Y0075879D01*
X0164076Y0075807D01*
X0164085Y0075735D01*
X0164098Y0075663D01*
X0164114Y0075592D01*
X0164134Y0075522D01*
X0164158Y0075454D01*
X0164184Y0075386D01*
X0164215Y0075320D01*
X0164248Y0075255D01*
X0164285Y0075193D01*
X0164324Y0075132D01*
X0164367Y0075073D01*
X0164413Y0075016D01*
X0164461Y0074962D01*
X0164512Y0074911D01*
X0164566Y0074861D01*
X0164622Y0074815D01*
X0164680Y0074772D01*
X0164741Y0074731D01*
X0164803Y0074694D01*
X0164867Y0074660D01*
X0164933Y0074629D01*
X0165000Y0074601D01*
X0165069Y0074577D01*
X0166069Y0076701D02*
X0166023Y0076747D01*
X0165974Y0076791D01*
X0165923Y0076831D01*
X0165870Y0076869D01*
X0165815Y0076904D01*
X0165758Y0076936D01*
X0165700Y0076965D01*
X0165640Y0076991D01*
X0165578Y0077013D01*
X0165516Y0077032D01*
X0165453Y0077048D01*
X0165389Y0077060D01*
X0165324Y0077069D01*
X0165259Y0077074D01*
X0165194Y0077076D01*
X0165194Y0077077D02*
X0165129Y0077075D01*
X0165063Y0077069D01*
X0164999Y0077060D01*
X0164935Y0077047D01*
X0164871Y0077030D01*
X0164809Y0077009D01*
X0164748Y0076985D01*
X0164689Y0076957D01*
X0164632Y0076926D01*
X0164576Y0076892D01*
X0164522Y0076854D01*
X0164471Y0076814D01*
X0164422Y0076770D01*
X0164376Y0076724D01*
X0164332Y0076675D01*
X0164292Y0076624D01*
X0164254Y0076570D01*
X0164220Y0076515D01*
X0164189Y0076457D01*
X0164161Y0076398D01*
X0164137Y0076337D01*
X0164116Y0076275D01*
X0164099Y0076211D01*
X0164086Y0076147D01*
X0164077Y0076083D01*
X0164071Y0076017D01*
X0164069Y0075952D01*
X0236900Y0054577D02*
X0236900Y0052077D01*
X0236900Y0053327D02*
X0241400Y0053327D01*
X0241400Y0056277D02*
X0241400Y0058777D01*
X0241400Y0056277D02*
X0238900Y0058402D01*
X0236901Y0057652D02*
X0236903Y0057579D01*
X0236908Y0057507D01*
X0236917Y0057435D01*
X0236930Y0057363D01*
X0236946Y0057292D01*
X0236966Y0057222D01*
X0236990Y0057154D01*
X0237016Y0057086D01*
X0237047Y0057020D01*
X0237080Y0056955D01*
X0237117Y0056893D01*
X0237156Y0056832D01*
X0237199Y0056773D01*
X0237245Y0056716D01*
X0237293Y0056662D01*
X0237344Y0056611D01*
X0237398Y0056561D01*
X0237454Y0056515D01*
X0237512Y0056472D01*
X0237573Y0056431D01*
X0237635Y0056394D01*
X0237699Y0056360D01*
X0237765Y0056329D01*
X0237832Y0056301D01*
X0237901Y0056277D01*
X0238900Y0058401D02*
X0238854Y0058447D01*
X0238805Y0058491D01*
X0238754Y0058531D01*
X0238701Y0058569D01*
X0238646Y0058604D01*
X0238589Y0058636D01*
X0238531Y0058665D01*
X0238471Y0058691D01*
X0238409Y0058713D01*
X0238347Y0058732D01*
X0238284Y0058748D01*
X0238220Y0058760D01*
X0238155Y0058769D01*
X0238090Y0058774D01*
X0238025Y0058776D01*
X0238025Y0058777D02*
X0237960Y0058775D01*
X0237894Y0058769D01*
X0237830Y0058760D01*
X0237766Y0058747D01*
X0237702Y0058730D01*
X0237640Y0058709D01*
X0237579Y0058685D01*
X0237520Y0058657D01*
X0237463Y0058626D01*
X0237407Y0058592D01*
X0237353Y0058554D01*
X0237302Y0058514D01*
X0237253Y0058470D01*
X0237207Y0058424D01*
X0237163Y0058375D01*
X0237123Y0058324D01*
X0237085Y0058270D01*
X0237051Y0058215D01*
X0237020Y0058157D01*
X0236992Y0058098D01*
X0236968Y0058037D01*
X0236947Y0057975D01*
X0236930Y0057911D01*
X0236917Y0057847D01*
X0236908Y0057783D01*
X0236902Y0057717D01*
X0236900Y0057652D01*
X0245319Y0065577D02*
X0247319Y0065577D01*
X0247388Y0065579D01*
X0247457Y0065585D01*
X0247525Y0065594D01*
X0247592Y0065607D01*
X0247659Y0065624D01*
X0247725Y0065645D01*
X0247789Y0065669D01*
X0247852Y0065697D01*
X0247914Y0065728D01*
X0247974Y0065762D01*
X0248031Y0065800D01*
X0248087Y0065841D01*
X0248140Y0065884D01*
X0248191Y0065931D01*
X0248239Y0065980D01*
X0248284Y0066032D01*
X0248326Y0066087D01*
X0248365Y0066143D01*
X0248402Y0066202D01*
X0248434Y0066263D01*
X0248464Y0066325D01*
X0248490Y0066389D01*
X0248512Y0066454D01*
X0248531Y0066520D01*
X0248546Y0066587D01*
X0248557Y0066655D01*
X0248565Y0066724D01*
X0248569Y0066793D01*
X0248569Y0066861D01*
X0248565Y0066930D01*
X0248557Y0066999D01*
X0248546Y0067067D01*
X0248531Y0067134D01*
X0248512Y0067200D01*
X0248490Y0067265D01*
X0248464Y0067329D01*
X0248434Y0067391D01*
X0248402Y0067452D01*
X0248365Y0067511D01*
X0248326Y0067567D01*
X0248284Y0067622D01*
X0248239Y0067674D01*
X0248191Y0067723D01*
X0248140Y0067770D01*
X0248087Y0067813D01*
X0248031Y0067854D01*
X0247974Y0067892D01*
X0247914Y0067926D01*
X0247852Y0067957D01*
X0247789Y0067985D01*
X0247725Y0068009D01*
X0247659Y0068030D01*
X0247592Y0068047D01*
X0247525Y0068060D01*
X0247457Y0068069D01*
X0247388Y0068075D01*
X0247319Y0068077D01*
X0245319Y0068077D01*
X0245250Y0068075D01*
X0245181Y0068069D01*
X0245113Y0068060D01*
X0245046Y0068047D01*
X0244979Y0068030D01*
X0244913Y0068009D01*
X0244849Y0067985D01*
X0244786Y0067957D01*
X0244724Y0067926D01*
X0244664Y0067892D01*
X0244607Y0067854D01*
X0244551Y0067813D01*
X0244498Y0067770D01*
X0244447Y0067723D01*
X0244399Y0067674D01*
X0244354Y0067622D01*
X0244312Y0067567D01*
X0244273Y0067511D01*
X0244236Y0067452D01*
X0244204Y0067391D01*
X0244174Y0067329D01*
X0244148Y0067265D01*
X0244126Y0067200D01*
X0244107Y0067134D01*
X0244092Y0067067D01*
X0244081Y0066999D01*
X0244073Y0066930D01*
X0244069Y0066861D01*
X0244069Y0066793D01*
X0244073Y0066724D01*
X0244081Y0066655D01*
X0244092Y0066587D01*
X0244107Y0066520D01*
X0244126Y0066454D01*
X0244148Y0066389D01*
X0244174Y0066325D01*
X0244204Y0066263D01*
X0244236Y0066202D01*
X0244273Y0066143D01*
X0244312Y0066087D01*
X0244354Y0066032D01*
X0244399Y0065980D01*
X0244447Y0065931D01*
X0244498Y0065884D01*
X0244551Y0065841D01*
X0244607Y0065800D01*
X0244664Y0065762D01*
X0244724Y0065728D01*
X0244786Y0065697D01*
X0244849Y0065669D01*
X0244913Y0065645D01*
X0244979Y0065624D01*
X0245046Y0065607D01*
X0245113Y0065594D01*
X0245181Y0065585D01*
X0245250Y0065579D01*
X0245319Y0065577D01*
X0244069Y0070302D02*
X0248569Y0070302D01*
X0246819Y0070302D02*
X0244069Y0072802D01*
X0245069Y0074577D02*
X0244069Y0075827D01*
X0248569Y0075827D01*
X0248569Y0074577D02*
X0248569Y0077077D01*
X0248569Y0072802D02*
X0245819Y0071302D01*
X0316900Y0057527D02*
X0317900Y0056277D01*
X0316900Y0057527D02*
X0321400Y0057527D01*
X0321400Y0056277D02*
X0321400Y0058777D01*
X0316900Y0054577D02*
X0316900Y0052077D01*
X0316900Y0053327D02*
X0321400Y0053327D01*
X0018569Y0070302D02*
X0014069Y0070302D01*
X0015819Y0071302D02*
X0018569Y0072802D01*
X0017569Y0074577D02*
X0017569Y0077077D01*
X0016569Y0076327D02*
X0018569Y0076327D01*
X0017569Y0074577D02*
X0014069Y0075577D01*
X0014069Y0072802D02*
X0016819Y0070302D01*
X0017319Y0068077D02*
X0015319Y0068077D01*
X0015250Y0068075D01*
X0015181Y0068069D01*
X0015113Y0068060D01*
X0015046Y0068047D01*
X0014979Y0068030D01*
X0014913Y0068009D01*
X0014849Y0067985D01*
X0014786Y0067957D01*
X0014724Y0067926D01*
X0014664Y0067892D01*
X0014607Y0067854D01*
X0014551Y0067813D01*
X0014498Y0067770D01*
X0014447Y0067723D01*
X0014399Y0067674D01*
X0014354Y0067622D01*
X0014312Y0067567D01*
X0014273Y0067511D01*
X0014236Y0067452D01*
X0014204Y0067391D01*
X0014174Y0067329D01*
X0014148Y0067265D01*
X0014126Y0067200D01*
X0014107Y0067134D01*
X0014092Y0067067D01*
X0014081Y0066999D01*
X0014073Y0066930D01*
X0014069Y0066861D01*
X0014069Y0066793D01*
X0014073Y0066724D01*
X0014081Y0066655D01*
X0014092Y0066587D01*
X0014107Y0066520D01*
X0014126Y0066454D01*
X0014148Y0066389D01*
X0014174Y0066325D01*
X0014204Y0066263D01*
X0014236Y0066202D01*
X0014273Y0066143D01*
X0014312Y0066087D01*
X0014354Y0066032D01*
X0014399Y0065980D01*
X0014447Y0065931D01*
X0014498Y0065884D01*
X0014551Y0065841D01*
X0014607Y0065800D01*
X0014664Y0065762D01*
X0014724Y0065728D01*
X0014786Y0065697D01*
X0014849Y0065669D01*
X0014913Y0065645D01*
X0014979Y0065624D01*
X0015046Y0065607D01*
X0015113Y0065594D01*
X0015181Y0065585D01*
X0015250Y0065579D01*
X0015319Y0065577D01*
X0017319Y0065577D01*
X0017388Y0065579D01*
X0017457Y0065585D01*
X0017525Y0065594D01*
X0017592Y0065607D01*
X0017659Y0065624D01*
X0017725Y0065645D01*
X0017789Y0065669D01*
X0017852Y0065697D01*
X0017914Y0065728D01*
X0017974Y0065762D01*
X0018031Y0065800D01*
X0018087Y0065841D01*
X0018140Y0065884D01*
X0018191Y0065931D01*
X0018239Y0065980D01*
X0018284Y0066032D01*
X0018326Y0066087D01*
X0018365Y0066143D01*
X0018402Y0066202D01*
X0018434Y0066263D01*
X0018464Y0066325D01*
X0018490Y0066389D01*
X0018512Y0066454D01*
X0018531Y0066520D01*
X0018546Y0066587D01*
X0018557Y0066655D01*
X0018565Y0066724D01*
X0018569Y0066793D01*
X0018569Y0066861D01*
X0018565Y0066930D01*
X0018557Y0066999D01*
X0018546Y0067067D01*
X0018531Y0067134D01*
X0018512Y0067200D01*
X0018490Y0067265D01*
X0018464Y0067329D01*
X0018434Y0067391D01*
X0018402Y0067452D01*
X0018365Y0067511D01*
X0018326Y0067567D01*
X0018284Y0067622D01*
X0018239Y0067674D01*
X0018191Y0067723D01*
X0018140Y0067770D01*
X0018087Y0067813D01*
X0018031Y0067854D01*
X0017974Y0067892D01*
X0017914Y0067926D01*
X0017852Y0067957D01*
X0017789Y0067985D01*
X0017725Y0068009D01*
X0017659Y0068030D01*
X0017592Y0068047D01*
X0017525Y0068060D01*
X0017457Y0068069D01*
X0017388Y0068075D01*
X0017319Y0068077D01*
D14*
X0084419Y0054127D03*
X0157450Y0054127D03*
X0232450Y0054127D03*
X0312450Y0054127D03*
D15*
X0299350Y0071827D03*
X0219350Y0071827D03*
X0144350Y0071827D03*
X0071319Y0071827D03*
D16*
X0073819Y0054577D03*
X0146850Y0054577D03*
X0221850Y0054577D03*
X0301850Y0054577D03*
X0301850Y0089077D03*
X0221850Y0089077D03*
X0146850Y0089077D03*
X0073819Y0089077D03*
D17*
X0073819Y0076827D03*
X0073819Y0066827D03*
X0146850Y0066827D03*
X0146850Y0076827D03*
X0221850Y0076827D03*
X0221850Y0066827D03*
X0301850Y0066827D03*
X0301850Y0076827D03*
M02*
