G75*
%MOIN*%
%OFA0B0*%
%FSLAX25Y25*%
%IPPOS*%
%LPD*%
%AMOC8*
5,1,8,0,0,1.08239X$1,22.5*
%
%ADD10C,0.06400*%
%ADD11C,0.06000*%
%ADD12R,0.04737X0.06312*%
%ADD13R,0.07898X0.07099*%
%ADD14C,0.06800*%
%ADD15C,0.07850*%
D10*
X0070882Y0111827D03*
X0078756Y0111827D03*
X0145882Y0111827D03*
X0153756Y0111827D03*
X0220882Y0111827D03*
X0228756Y0111827D03*
X0305882Y0111827D03*
X0313756Y0111827D03*
X0332693Y0086512D03*
X0332693Y0078638D03*
X0332693Y0070764D03*
X0332693Y0062890D03*
X0332693Y0055016D03*
X0332693Y0047142D03*
D11*
X0274819Y0056627D02*
X0274819Y0061827D01*
X0264819Y0061827D02*
X0264819Y0056627D01*
X0254819Y0056627D02*
X0254819Y0061827D01*
X0194819Y0061827D02*
X0194819Y0056627D01*
X0184819Y0056627D02*
X0184819Y0061827D01*
X0174819Y0061827D02*
X0174819Y0056627D01*
X0119819Y0056627D02*
X0119819Y0061827D01*
X0109819Y0061827D02*
X0109819Y0056627D01*
X0099819Y0056627D02*
X0099819Y0061827D01*
X0044819Y0061827D02*
X0044819Y0056627D01*
X0034819Y0056627D02*
X0034819Y0061827D01*
X0024819Y0061827D02*
X0024819Y0056627D01*
X0024819Y0091827D02*
X0024819Y0097027D01*
X0034819Y0097027D02*
X0034819Y0091827D01*
X0044819Y0091827D02*
X0044819Y0097027D01*
X0099819Y0097027D02*
X0099819Y0091827D01*
X0109819Y0091827D02*
X0109819Y0097027D01*
X0119819Y0097027D02*
X0119819Y0091827D01*
X0174819Y0091827D02*
X0174819Y0097027D01*
X0184819Y0097027D02*
X0184819Y0091827D01*
X0194819Y0091827D02*
X0194819Y0097027D01*
X0254819Y0097027D02*
X0254819Y0091827D01*
X0264819Y0091827D02*
X0264819Y0097027D01*
X0274819Y0097027D02*
X0274819Y0091827D01*
D12*
X0264819Y0041157D03*
X0268559Y0032496D03*
X0261079Y0032496D03*
X0193559Y0032496D03*
X0186079Y0032496D03*
X0189819Y0041157D03*
X0118559Y0037496D03*
X0111079Y0037496D03*
X0114819Y0046157D03*
X0043559Y0041433D03*
X0036079Y0041433D03*
X0039819Y0050094D03*
D13*
X0022850Y0047425D03*
X0022850Y0036228D03*
X0059819Y0056228D03*
X0059819Y0067425D03*
X0059819Y0086228D03*
X0059819Y0097425D03*
X0134819Y0097425D03*
X0134819Y0086228D03*
X0134819Y0067425D03*
X0134819Y0056228D03*
X0099819Y0047425D03*
X0099819Y0036228D03*
X0174819Y0031228D03*
X0174819Y0042425D03*
X0209819Y0056228D03*
X0209819Y0067425D03*
X0209819Y0086228D03*
X0209819Y0097425D03*
X0289819Y0097425D03*
X0289819Y0086228D03*
X0289819Y0067425D03*
X0289819Y0056228D03*
X0249819Y0042425D03*
X0249819Y0031228D03*
D14*
X0230850Y0061827D02*
X0224850Y0061827D01*
X0224850Y0071827D02*
X0230850Y0071827D01*
X0230850Y0081827D02*
X0224850Y0081827D01*
X0155850Y0081827D02*
X0149850Y0081827D01*
X0149850Y0071827D02*
X0155850Y0071827D01*
X0155850Y0061827D02*
X0149850Y0061827D01*
X0082819Y0061827D02*
X0076819Y0061827D01*
X0076819Y0071827D02*
X0082819Y0071827D01*
X0082819Y0081827D02*
X0076819Y0081827D01*
X0304850Y0081827D02*
X0310850Y0081827D01*
X0310850Y0071827D02*
X0304850Y0071827D01*
X0304850Y0061827D02*
X0310850Y0061827D01*
D15*
X0059819Y0032852D02*
X0059819Y0025802D01*
X0079819Y0025802D02*
X0079819Y0032852D01*
X0134819Y0032852D02*
X0134819Y0025802D01*
X0154819Y0025802D02*
X0154819Y0032852D01*
X0209819Y0032852D02*
X0209819Y0025802D01*
X0229819Y0025802D02*
X0229819Y0032852D01*
X0284819Y0032852D02*
X0284819Y0025802D01*
X0304819Y0025802D02*
X0304819Y0032852D01*
M02*
